<?xml version="1.0" encoding="UTF-8"?>
<svg width="797px" height="624px" viewBox="0 0 797 624" version="1.1" xmlns="http://www.w3.org/2000/svg" xmlns:xlink="http://www.w3.org/1999/xlink">
    <!-- Generator: Sketch 49.3 (51167) - http://www.bohemiancoding.com/sketch -->
    <title>logo</title>
    <desc>Created with Sketch.</desc>
    <defs></defs>
    <g id="Page-1" stroke="none" stroke-width="1" fill="none" fill-rule="evenodd">
        <g id="logo-dark" transform="translate(-114.000000, -200.000000)">
            <g id="logo" transform="translate(127.000000, 200.000000)">
                <path d="M281.998476,539.428747 C281.723038,586.724369 243.351372,624.458054 196.000038,623.995798 C149.067849,623.537526 111.582374,584.859403 112.003514,537.326675 C112.414675,490.834025 150.989925,453.506807 198.109731,454.004928 C245.18962,454.503049 282.273913,492.264629 281.998476,539.428747 Z" id="Shape" fill="#FFFFFF" fill-rule="nonzero"></path>
                <path d="M494.000191,538.963881 C493.902384,491.868508 531.282881,454.212136 578.344342,454.000919 C625.94674,453.785717 663.934044,491.380318 663.999914,538.770598 C664.065785,585.49933 626.172296,623.73356 579.532007,623.998577 C532.229021,624.26758 494.097999,586.360138 494.000191,538.963881 Z" id="Shape" fill="#FFFFFF" fill-rule="nonzero"></path>
                <path d="M210.566396,213.317701 L188.974619,213.317701 C168.347325,213.317701 148.462891,221.001982 133.218357,234.862616 L27.017088,331.4214 C9.80814443,347.069353 0,369.224571 0,392.453765 L0,489.408851 C0,533.364597 35.7188865,569 79.7820448,569 L79.7820448,536.140687 C79.7820448,472.942536 131.138744,421.708719 194.488473,421.708719 C257.838201,421.708719 309.194901,472.942536 309.194901,536.140687 L309.194901,568.835535 L462.798229,568.835535 L462.798229,535.976222 C462.798229,473.051519 513.932467,422.03963 577.008092,422.03963 C640.083717,422.03963 691.217955,473.051519 691.217955,535.976222 L691.217955,568.67107 C735.279127,568.67107 771,533.037649 771,489.079921 L771,392.398283 C771,368.818362 760.895903,346.363937 743.234093,330.694188 L632.976884,232.871202 C617.823718,219.426684 598.24914,212 577.969441,212 L554.499811,212" id="Shape" stroke="#FFFFFF" stroke-width="26"></path>
                <path d="M381.504451,510 L226.680258,271.071653 C158.329094,149.829669 246.10874,0 385.493803,0 C526.650147,0 614.209376,153.276284 542.313666,274.520251 L381.504451,510 Z" id="Shape" fill="#FFFFFF" fill-rule="nonzero"></path>
                <circle id="Oval" fill="#743959" fill-rule="nonzero" cx="385.5" cy="187.5" r="88.5"></circle>
            </g>
        </g>
    </g>
</svg>